<svg width="28" height="28" viewBox="0 0 28 28" fill="none" xmlns="http://www.w3.org/2000/svg">
<path d="M12.8333 2.33331H10.5C4.66668 2.33331 2.33334 4.66665 2.33334 10.5V17.5C2.33334 23.3333 4.66668 25.6666 10.5 25.6666H17.5C23.3333 25.6666 25.6667 23.3333 25.6667 17.5V15.1666" stroke="#06A7E0" stroke-width="2" stroke-linecap="round" stroke-linejoin="round"/>
<path d="M19.5741 3.35367L11.1831 11.7447C10.8636 12.0642 10.5442 12.6924 10.4803 13.1503L10.0224 16.3555C9.85204 17.5162 10.672 18.3255 11.8327 18.1658L15.0379 17.7079C15.4851 17.644 16.1134 17.3245 16.4435 17.0051L24.8345 8.61404C26.2827 7.16584 26.9642 5.48337 24.8345 3.35367C22.7048 1.22397 21.0223 1.90547 19.5741 3.35367Z" stroke="#06A7E0" stroke-width="1.82546" stroke-miterlimit="10" stroke-linecap="round" stroke-linejoin="round"/>
<path d="M18.3708 4.55688C18.7239 5.81071 19.393 6.95287 20.3141 7.87395C21.2352 8.79502 22.3774 9.46416 23.6312 9.81725" stroke="#06A7E0" stroke-width="1.82546" stroke-miterlimit="10" stroke-linecap="round" stroke-linejoin="round"/>
</svg>
