<svg width="23" height="22" viewBox="0 0 23 22" fill="none" xmlns="http://www.w3.org/2000/svg">
<rect x="0.923828" y="0.649902" width="21.2346" height="21.3" fill="#0C0C0C"/>
<path d="M19.0764 5.0867C19.076 4.8342 18.871 4.62982 18.6185 4.63021L14.5037 4.63654C14.2512 4.63692 14.0468 4.84193 14.0472 5.09444C14.0476 5.34694 14.2526 5.55132 14.5051 5.55093L18.1627 5.5453L18.1683 9.20287C18.1687 9.45538 18.3737 9.65975 18.6262 9.65937C18.8787 9.65898 19.0831 9.45397 19.0827 9.20147L19.0764 5.0867ZM13.6343 10.7352L18.943 5.41019L18.2954 4.76461L12.9868 10.0896L13.6343 10.7352Z" fill="white"/>
<path d="M19.0764 18.4006C19.076 18.6531 18.871 18.8575 18.6185 18.8571L14.5037 18.8508C14.2512 18.8504 14.0468 18.6454 14.0472 18.3929C14.0476 18.1404 14.2526 17.936 14.5051 17.9364L18.1627 17.942L18.1683 14.2844C18.1687 14.0319 18.3737 13.8275 18.6262 13.8279C18.8787 13.8283 19.0831 14.0333 19.0827 14.2858L19.0764 18.4006ZM13.6343 12.7521L18.943 18.0771L18.2954 18.7227L12.9868 13.3977L13.6343 12.7521Z" fill="white"/>
<path d="M4.89041 18.4006C4.8908 18.6531 5.09581 18.8575 5.34831 18.8571L9.46308 18.8508C9.71558 18.8504 9.91996 18.6454 9.91957 18.3929C9.91918 18.1404 9.71418 17.936 9.46167 17.9364L5.8041 17.942L5.79847 14.2844C5.79809 14.0319 5.59308 13.8275 5.34058 13.8279C5.08807 13.8283 4.88369 14.0333 4.88408 14.2858L4.89041 18.4006ZM10.3325 12.7521L5.02382 18.0771L5.67139 18.7227L10.98 13.3977L10.3325 12.7521Z" fill="white"/>
<path d="M4.89041 5.0867C4.8908 4.8342 5.09581 4.62982 5.34831 4.63021L9.46308 4.63654C9.71558 4.63692 9.91996 4.84193 9.91957 5.09444C9.91918 5.34694 9.71418 5.55132 9.46167 5.55093L5.8041 5.5453L5.79847 9.20287C5.79809 9.45538 5.59308 9.65975 5.34058 9.65937C5.08807 9.65898 4.88369 9.45397 4.88408 9.20147L4.89041 5.0867ZM10.3325 10.7352L5.02382 5.41019L5.67139 4.76461L10.98 10.0896L10.3325 10.7352Z" fill="white"/>
</svg>
