<svg width="18" height="18" viewBox="0 0 18 18" fill="none" xmlns="http://www.w3.org/2000/svg">
<g clipPath="url(#clip0_434_23084)">
<path d="M18.0527 16.5543C12.0692 16.579 6.08562 16.579 0.0774005 16.579C0.0527344 16.2446 0.0527344 15.9101 0.0527344 15.551C6.03629 15.5264 12.0198 15.5264 18.0281 15.5264C18.0527 15.8608 18.0527 16.1953 18.0527 16.5543Z" fill="#6F7479"/>
<path d="M2.06147 7.3387C2.03585 6.79583 2.00364 6.27429 2.00391 5.75277C2.00419 5.19564 2.03297 4.63844 2.05376 4.08144C2.06169 3.86884 2.27773 3.73084 2.5072 3.80661C2.87461 3.92792 3.22675 4.11702 3.60219 4.18688C4.0552 4.27117 4.10694 4.6124 4.20849 4.93714C4.35943 5.41984 4.48928 5.90927 4.64763 6.3894C4.67406 6.46953 4.79009 6.54351 4.88056 6.57546C5.6991 6.86448 6.52098 7.14406 7.34234 7.42503C7.50121 7.47937 7.65909 7.54415 7.82291 7.57439C7.99704 7.60653 8.11558 7.52635 8.10428 7.33043C8.07239 6.77744 8.03421 6.22482 8.00231 5.67183C7.99424 5.53193 8.00442 5.39108 7.99937 5.25091C7.96553 4.31208 7.92758 3.37339 7.89625 2.43448C7.88781 2.18151 8.06361 2.02348 8.28216 2.11895C8.81202 2.35043 9.38111 2.50893 9.79202 2.96841C10.1139 3.32828 10.2714 3.75877 10.4196 4.19896C10.5484 4.58125 10.6621 4.96855 10.7888 5.35158C11.0323 6.08813 11.2809 6.82298 11.5259 7.55905C11.6347 7.88619 11.6972 8.2384 11.8623 8.53364C11.9636 8.7148 12.2026 8.85069 12.4092 8.93457C12.8289 9.105 13.2797 9.19958 13.6973 9.37431C14.3038 9.62813 14.8156 10.0292 15.2126 10.5551C15.4942 10.9281 15.7395 11.3285 16.0035 11.715C16.1625 11.9479 16.1528 12.5568 15.9125 12.8521C15.6887 13.1269 15.1985 13.2791 14.8475 13.1551C14.1411 12.9055 13.4408 12.6384 12.7332 12.3922C11.6753 12.0241 10.6113 11.6739 9.55397 11.3042C8.87904 11.0683 8.21415 10.8037 7.54009 10.5651C6.78661 10.2985 6.02351 10.0586 5.27269 9.78492C4.61014 9.54339 3.93283 9.32128 3.30987 8.99832C2.71604 8.69047 2.31701 8.16247 2.14284 7.49324C2.13046 7.44568 2.09428 7.4043 2.06147 7.3387Z" fill="#6F7479"/>
</g>
<defs>
<clipPath id="clip0_434_23084">
<rect width="18" height="18" fill="white"/>
</clipPath>
</defs>
</svg>
