<svg width="18" height="19" viewBox="0 0 18 19" fill="none" xmlns="http://www.w3.org/2000/svg">
<g clipPath="url(#clip0_434_23094)">
<path d="M18.0527 17.2384C12.0692 17.2631 6.08562 17.2631 0.0774005 17.2631C0.0527344 16.9286 0.0527344 16.5942 0.0527344 16.2351C6.03629 16.2104 12.0198 16.2104 18.0281 16.2104C18.0527 16.5449 18.0527 16.8793 18.0527 17.2384Z" fill="#6F7479"/>
<path d="M3.89409 13.059C3.49211 12.6933 3.10055 12.3473 2.73197 11.9783C2.33822 11.5842 1.96457 11.1698 1.58541 10.7612C1.44069 10.6053 1.49587 10.355 1.71171 10.2463C2.05728 10.0723 2.44 9.95697 2.75488 9.74089C3.1348 9.48018 3.41267 9.68488 3.7141 9.84269C4.16216 10.0773 4.60006 10.3315 5.05153 10.5591C5.12687 10.597 5.26123 10.5673 5.3478 10.5259C6.13096 10.1515 6.90981 9.76804 7.68928 9.38592C7.84004 9.31202 7.99748 9.24618 8.1347 9.15173C8.28056 9.05132 8.30768 8.91081 8.16116 8.78026C7.74759 8.41179 7.32982 8.04803 6.91624 7.67956C6.81162 7.58635 6.71921 7.47955 6.61653 7.384C5.92875 6.74408 5.23816 6.10716 4.5521 5.46541C4.36725 5.29249 4.37982 5.05644 4.60187 4.96941C5.14021 4.75843 5.6547 4.46809 6.27016 4.50243C6.75219 4.52933 7.16803 4.7223 7.58409 4.92877C7.94542 5.10807 8.29974 5.30148 8.66011 5.48279C9.35311 5.83144 10.0486 6.17521 10.7423 6.52249C11.0506 6.67683 11.3438 6.8817 11.6693 6.97375C11.869 7.03022 12.1341 6.95727 12.3395 6.87052C12.7568 6.69426 13.1424 6.44237 13.5612 6.27067C14.1696 6.02125 14.8151 5.94293 15.4676 6.03408C15.9306 6.09874 16.3871 6.20842 16.8471 6.29504C17.1242 6.34723 17.548 6.78467 17.5868 7.16346C17.6229 7.51599 17.3838 7.97028 17.048 8.13075C16.372 8.45378 15.6879 8.7601 15.0135 9.08634C14.0052 9.57406 13.0051 10.0788 11.9961 10.5651C11.352 10.8755 10.6948 11.1585 10.0495 11.4665C9.32814 11.8107 8.61896 12.1807 7.89451 12.5181C7.25523 12.8158 6.61924 13.1377 5.95037 13.3498C5.31279 13.552 4.65727 13.4608 4.06091 13.1108C4.01852 13.0859 3.96368 13.0822 3.89409 13.059Z" fill="#6F7479"/>
</g>
<defs>
<clipPath id="clip0_434_23094">
<rect width="18" height="18" fill="white" transform="translate(0 0.684082)"/>
</clipPath>
</defs>
</svg>
