<svg width="28" height="28" viewBox="0 0 28 28" fill="none" xmlns="http://www.w3.org/2000/svg">
<path d="M12.833 2.3335H10.4997C4.66634 2.3335 2.33301 4.66683 2.33301 10.5002V17.5002C2.33301 23.3335 4.66634 25.6668 10.4997 25.6668H17.4997C23.333 25.6668 25.6663 23.3335 25.6663 17.5002V15.1668" stroke="#06A7E0" stroke-width="2" stroke-linecap="round" stroke-linejoin="round"/>
<path d="M19.5741 3.35367L11.1831 11.7447C10.8636 12.0642 10.5442 12.6924 10.4803 13.1503L10.0224 16.3555C9.85204 17.5162 10.672 18.3255 11.8327 18.1658L15.0379 17.7079C15.4851 17.644 16.1134 17.3245 16.4435 17.0051L24.8345 8.61404C26.2827 7.16584 26.9642 5.48337 24.8345 3.35367C22.7048 1.22397 21.0223 1.90547 19.5741 3.35367Z" stroke="#06A7E0" stroke-width="1.82546" stroke-miterlimit="10" stroke-linecap="round" stroke-linejoin="round"/>
<path d="M18.3711 4.55664C18.7242 5.81047 19.3933 6.95263 20.3144 7.8737C21.2355 8.79478 22.3776 9.46391 23.6315 9.81701" stroke="#06A7E0" stroke-width="1.82546" stroke-miterlimit="10" stroke-linecap="round" stroke-linejoin="round"/>
</svg>
