<svg width="16" height="16" viewBox="0 0 16 16" fill="none" xmlns="http://www.w3.org/2000/svg">
<g opacity="0.5" clip-path="url(#clip0_3269_11532)">
<path d="M14.157 14.4321L12.8706 13.1457M7.4033 13.7889C8.20574 13.7889 9.00033 13.6308 9.74169 13.3238C10.4831 13.0167 11.1567 12.5666 11.7241 11.9992C12.2915 11.4318 12.7416 10.7581 13.0487 10.0168C13.3558 9.27542 13.5138 8.48083 13.5138 7.67838C13.5138 6.87594 13.3558 6.08135 13.0487 5.33999C12.7416 4.59863 12.2915 3.92501 11.7241 3.3576C11.1567 2.79019 10.4831 2.34009 9.74169 2.03301C9.00033 1.72592 8.20574 1.56787 7.4033 1.56787C5.78269 1.56787 4.22846 2.21166 3.08251 3.3576C1.93657 4.50354 1.29279 6.05778 1.29279 7.67838C1.29279 9.29899 1.93657 10.8532 3.08251 11.9992C4.22846 13.1451 5.78269 13.7889 7.4033 13.7889Z" stroke="white" stroke-width="1.28642" stroke-linecap="round" stroke-linejoin="round"/>
</g>
<defs>
<clipPath id="clip0_3269_11532">
<rect width="15.4371" height="15.4371" fill="white" transform="translate(0.0065918 0.281494)"/>
</clipPath>
</defs>
</svg>
