<svg width="29" height="33" viewBox="0 0 29 33" fill="none" xmlns="http://www.w3.org/2000/svg">
<g clip-path="url(#clip0_3142_23163)">
<path d="M27.7394 7.36159C22.8409 6.86065 17.913 6.60259 12.9998 6.60259C10.0872 6.60259 7.17459 6.75439 4.26199 7.05799L1.26112 7.36159M9.3517 5.82841L9.67532 3.83983C9.91068 2.39773 10.0872 1.31995 12.5732 1.31995H16.4273C18.9133 1.31995 19.1045 2.45845 19.3252 3.85501L19.6488 5.82841M24.5767 12.1585L23.6205 27.4447C23.4587 29.828 23.3263 31.6799 19.2222 31.6799H9.77829C5.67416 31.6799 5.54177 29.828 5.37996 27.4447L4.4238 12.1585M12.0437 23.3309H16.9421M10.8227 17.2589H18.1778" stroke="#FF375E" stroke-width="2.63158" stroke-linecap="round" stroke-linejoin="round"/>
</g>
<defs>
<clipPath id="clip0_3142_23163">
<rect width="29" height="33" fill="white"/>
</clipPath>
</defs>
</svg>
